<svg
  xmlns="http://www.w3.org/2000/svg"
  width="24"
  height="24"
  viewBox="0 0 24 24"
  fill="none"
  stroke="currentColor"
  stroke-width="2"
  stroke-linecap="round"
  stroke-linejoin="round"
>
  <circle cx="12" cy="12" r="3" />
  <path d="M19.4 15a1.7 1.7 0 0 0 .34 1.87l.06.06a2 2 0 0 1-2.83 2.83l-.06-.06A1.7 1.7 0 0 0 15 19.4a1.7 1.7 0 0 0-1 .16 1.7 1.7 0 0 0-.9 1.54V21a2 2 0 1 1-4 0v-.09a1.7 1.7 0 0 0-.9-1.54 1.7 1.7 0 0 0-1-.16 1.7 1.7 0 0 0-1.87.34l-.06.06a2 2 0 1 1-2.83-2.83l.06-.06A1.7 1.7 0 0 0 4.6 15a1.7 1.7 0 0 0-.16-1 1.7 1.7 0 0 0-1.54-.9H2.8a2 2 0 1 1 0-4h.09a1.7 1.7 0 0 0 1.54-.9 1.7 1.7 0 0 0 .16-1 1.7 1.7 0 0 0-.34-1.87l-.06-.06a2 2 0 1 1 2.83-2.83l.06.06A1.7 1.7 0 0 0 9 4.6a1.7 1.7 0 0 0 1-.16 1.7 1.7 0 0 0 .9-1.54V2.8a2 2 0 1 1 4 0v.09a1.7 1.7 0 0 0 .9 1.54 1.7 1.7 0 0 0 1 .16 1.7 1.7 0 0 0 1.87-.34l.06-.06a2 2 0 1 1 2.83 2.83l-.06.06A1.7 1.7 0 0 0 19.4 9c0 .35.06.69.16 1a1.7 1.7 0 0 0 1.54.9h.09a2 2 0 1 1 0 4h-.09a1.7 1.7 0 0 0-1.54.9c-.1.31-.16.65-.16 1Z" />
</svg>
