<svg xmlns="http://www.w3.org/2000/svg" width="24" height="24" viewBox="0 0 24 24" fill="none" stroke="currentColor" stroke-width="2" stroke-linecap="round" stroke-linejoin="round">
  <circle cx="12" cy="12" r="3" />
  <path d="M19.4 15a1.8 1.8 0 0 0 .4 2l.1.1-2 3.4-.2-.1a1.8 1.8 0 0 0-2.1.4l-.5.5h-4l-.5-.5a1.8 1.8 0 0 0-2.1-.4l-.2.1-2-3.4.1-.1a1.8 1.8 0 0 0 .4-2 1.8 1.8 0 0 0-1.7-1.2H5v-3.6h.1A1.8 1.8 0 0 0 6.8 9a1.8 1.8 0 0 0-.4-2l-.1-.1 2-3.4.2.1a1.8 1.8 0 0 0 2.1-.4l.5-.5h4l.5.5a1.8 1.8 0 0 0 2.1.4l.2-.1 2 3.4-.1.1a1.8 1.8 0 0 0-.4 2 1.8 1.8 0 0 0 1.7 1.2h.1v3.6h-.1a1.8 1.8 0 0 0-1.7 1.2Z" />
</svg>
